<svg width="43" height="36" viewBox="0 0 43 36" fill="none" xmlns="http://www.w3.org/2000/svg">
<g clip-path="url(#clip0)">
<path d="M22.5213 35.5555L6.39244 20.0259C6.02089 19.6681 5.66622 19.286 5.34533 18.8794H1.56222C0.700889 18.8794 0 18.2046 0 17.3752C0 16.5459 0.700889 15.8711 1.56222 15.8711H3.60578C1.95067 11.6431 2.964 6.73216 6.39244 3.4311C10.792 -0.805001 17.7418 -1.11397 22.5213 2.48793C27.3009 -1.1221 34.2507 -0.805001 38.6502 3.4311C40.9556 5.64265 42.2222 8.59409 42.2222 11.7244C42.2222 14.1636 41.4538 16.4971 40.0013 18.481L39.5369 19.1152H31.2022L28.1453 16.1719L21.052 23.0017L16.7622 18.8713H9.61822L22.5213 31.3031L28.0862 25.945C28.6942 25.3596 29.6822 25.3596 30.2987 25.945C30.9067 26.5304 30.9067 27.4817 30.2987 28.0753L22.5213 35.5555ZM7.03422 15.8711H18.0627L21.052 18.7493L28.1453 11.9195L32.4942 16.1069H37.8733C38.6756 14.7816 39.0978 13.2774 39.0978 11.7244C39.0978 9.3909 38.152 7.20374 36.4462 5.55321C32.9164 2.15458 27.1658 2.15458 23.6276 5.55321L22.5213 6.61833L21.4151 5.55321C17.8853 2.15458 12.1347 2.15458 8.59644 5.55321C5.75911 8.29325 5.15111 12.5212 7.03422 15.8711Z" fill="#0063CC"/>
</g>
<defs>
<clipPath id="clip0">
<rect width="42.2222" height="35.5556" fill="white"/>
</clipPath>
</defs>
</svg>