<svg width="150" height="36" viewBox="0 0 150 36" fill="none" xmlns="http://www.w3.org/2000/svg">
<g clip-path="url(#clip0)">
<path d="M55.4822 11.4231V17.3722H66.0222V21.5425H55.4822V29.7448H50.2222V7.23299H67.4222V11.4033H55.4822V11.4231ZM70.5822 9.22921C70.0022 8.69556 69.7022 8.02357 69.7022 7.23299C69.7022 6.44241 70.0022 5.77041 70.5822 5.23677C71.1622 4.70313 71.9222 4.42642 72.8622 4.42642C73.8022 4.42642 74.5622 4.68336 75.1422 5.19724C75.7222 5.71112 76.0222 6.36335 76.0222 7.13416C76.0222 7.96427 75.7222 8.65603 75.1422 9.20944C74.5622 9.76285 73.8022 10.0198 72.8622 10.0198C71.9222 10.0396 71.1622 9.76285 70.5822 9.22921ZM70.3222 12.4508H75.4022V29.7448H70.3222V12.4508ZM91.4022 28.8949C90.9022 29.2507 90.2822 29.5274 89.5622 29.7053C88.8422 29.8831 88.0622 29.982 87.2622 29.982C85.1822 29.982 83.5622 29.4483 82.4422 28.4008C81.3022 27.3533 80.7422 25.8117 80.7422 23.7759V16.7002H78.0222V12.8264H80.7222V8.6165H85.8022V12.8264H90.1622V16.7002H85.8022V23.7364C85.8022 24.4677 85.9822 25.0211 86.3622 25.4164C86.7422 25.8117 87.2822 26.0093 87.9622 26.0093C88.7622 26.0093 89.4422 25.7919 90.0022 25.3571L91.4022 28.8949ZM114.642 7.23299V29.7448H112.662L98.0222 11.4824V29.7448H95.6222V7.23299H97.6022L112.262 25.4954V7.23299H114.642ZM136.462 21.9971H122.162C122.282 23.7561 122.982 25.1792 124.202 26.2465C125.442 27.3335 127.002 27.8672 128.882 27.8672C129.942 27.8672 130.922 27.6893 131.802 27.3138C132.682 26.9382 133.462 26.3848 134.102 25.6535L135.402 27.1359C134.642 28.045 133.702 28.717 132.562 29.1914C131.422 29.6657 130.162 29.9029 128.802 29.9029C127.042 29.9029 125.482 29.5274 124.142 28.7961C122.782 28.0648 121.722 27.0371 120.962 25.7326C120.202 24.4281 119.822 22.9458 119.822 21.3053C119.822 19.6649 120.182 18.1825 120.902 16.8781C121.622 15.5736 122.622 14.5459 123.902 13.8343C125.162 13.1031 126.602 12.7473 128.182 12.7473C129.762 12.7473 131.182 13.1031 132.442 13.8343C133.702 14.5656 134.682 15.5736 135.402 16.8781C136.122 18.1825 136.482 19.6649 136.482 21.3251L136.462 21.9971ZM124.062 16.2259C122.942 17.2734 122.302 18.6174 122.162 20.2973H134.302C134.142 18.6174 133.522 17.2734 132.402 16.2259C131.282 15.1783 129.902 14.6645 128.222 14.6645C126.562 14.6645 125.182 15.1783 124.062 16.2259ZM150.222 28.717C149.782 29.1123 149.242 29.389 148.622 29.6064C147.982 29.8041 147.322 29.9029 146.622 29.9029C145.022 29.9029 143.782 29.4681 142.922 28.6182C142.062 27.7683 141.622 26.5429 141.622 24.9815V14.7633H138.562V12.8264H141.622V9.13038H143.922V12.8264H149.122V14.7633H143.922V24.863C143.922 25.8709 144.182 26.6418 144.682 27.1556C145.182 27.6893 145.922 27.9462 146.882 27.9462C147.362 27.9462 147.822 27.8672 148.262 27.7288C148.702 27.5707 149.082 27.3731 149.422 27.0766L150.222 28.717Z" fill="#0063CC"/>
</g>
<g clip-path="url(#clip1)">
<path d="M22.5213 35.5555L6.39244 20.0259C6.02088 19.6681 5.66621 19.286 5.34533 18.8794H1.56221C0.700881 18.8794 -7.62939e-06 18.2046 -7.62939e-06 17.3752C-7.62939e-06 16.5459 0.700881 15.8711 1.56221 15.8711H3.60577C1.95066 11.6431 2.96399 6.73216 6.39244 3.4311C10.792 -0.805001 17.7418 -1.11397 22.5213 2.48793C27.3009 -1.1221 34.2507 -0.805001 38.6502 3.4311C40.9555 5.64265 42.2222 8.59409 42.2222 11.7244C42.2222 14.1636 41.4538 16.4971 40.0013 18.481L39.5369 19.1152H31.2022L28.1453 16.1719L21.052 23.0017L16.7622 18.8713H9.61821L22.5213 31.3031L28.0862 25.945C28.6942 25.3596 29.6822 25.3596 30.2987 25.945C30.9067 26.5304 30.9067 27.4817 30.2987 28.0753L22.5213 35.5555ZM7.03421 15.8711H18.0627L21.052 18.7493L28.1453 11.9195L32.4942 16.1069H37.8733C38.6755 14.7816 39.0978 13.2774 39.0978 11.7244C39.0978 9.3909 38.152 7.20374 36.4462 5.55321C32.9164 2.15458 27.1658 2.15458 23.6275 5.55321L22.5213 6.61833L21.4151 5.55321C17.8853 2.15458 12.1347 2.15458 8.59644 5.55321C5.7591 8.29325 5.1511 12.5212 7.03421 15.8711Z" fill="#0063CC"/>
</g>
<defs>
<clipPath id="clip0">
<rect width="100" height="25.5556" fill="white" transform="translate(50.2222 4.44444)"/>
</clipPath>
<clipPath id="clip1">
<rect width="42.2222" height="35.5556" fill="white"/>
</clipPath>
</defs>
</svg>